<svg xmlns="http://www.w3.org/2000/svg" width="260" height="247" viewBox="0 0 260 247"><g transform="translate(4.766 40.074)"><rect width="260" height="247" transform="translate(-4.766 -40.074)" fill="#fff"/><path d="M57.88,71.055H54.056a38.331,38.331,0,0,1-26.68-10.761A33.084,33.084,0,0,1,15.9,35.481,31.839,31.839,0,0,1,27.732,10.224,45.179,45.179,0,0,1,79.047,6.133a41.088,41.088,0,0,1,16.1,17.787,67.146,67.146,0,0,1,5.87,29.348A91.247,91.247,0,0,1,90.075,97.024a95.693,95.693,0,0,1-26.68,32.283,49.092,49.092,0,0,1-28.37,11.917A18.587,18.587,0,0,1,21.862,136.6a14.763,14.763,0,0,1-5.069-11.028,16.453,16.453,0,0,1,10.672-15.564A75.772,75.772,0,0,0,48.987,94,36.2,36.2,0,0,0,57.88,71.055Z" transform="translate(-15.9 -0.012)" fill="#17427c" opacity="0.06"/></g></svg>