<svg xmlns="http://www.w3.org/2000/svg" width="353" height="632" viewBox="0 0 353 632"><g transform="translate(-693 -2698)"><rect width="353" height="632" transform="translate(693 2698)" fill="#f93"/><g transform="translate(705.423 3026.416)"><text transform="translate(-0.422 -0.416)" fill="#fff" font-size="20" font-family="Montserrat-SemiBold, Montserrat" font-weight="600"><tspan x="0" y="19">JOUR 1</tspan><tspan y="19" xml:space="preserve" font-size="15"> | AUX HUMANITÉS NUMÉRIQUES</tspan></text><text transform="translate(-0.422 58.584)" fill="#fff" font-size="12" font-family="Montserrat-Medium, Montserrat" font-weight="500"><tspan x="0" y="12">20.SEPTEMBRE 2022</tspan><tspan font-size="15" font-family="Montserrat-Regular, Montserrat" font-weight="400"><tspan x="0" y="37">la digitalisation des ressources </tspan><tspan x="0" y="62">documentaires, la multiplication des bases </tspan><tspan x="0" y="87">la digitalisation des ressources </tspan><tspan x="0" y="112">documentaires, la multiplication des bases </tspan><tspan x="0" y="137">de données, le traitement numérique des </tspan><tspan x="0" y="162">corpus ont profondément changé le </tspan><tspan x="0" y="187">paysage des sciences humaines et sociales. </tspan></tspan><tspan font-size="15"><tspan x="0" y="212">LIRE PLUS </tspan></tspan></text></g><g transform="translate(791.496 2787.72)"><path d="M1097.608,589.065h-.043a2.5,2.5,0,0,1-2.457-2.542c.431-25.276-5.6-42.624-17.912-51.56-8.813-6.394-19.392-7.235-26.713-6.815a57.856,57.856,0,0,0-13.99,2.492,2.5,2.5,0,0,1-1.632-4.726,62.248,62.248,0,0,1,15.336-2.758,54.391,54.391,0,0,1,14.6,1.035,40.48,40.48,0,0,1,15.341,6.724c6.357,4.612,11.271,11.216,14.608,19.628a73.125,73.125,0,0,1,4.127,15.713,120.663,120.663,0,0,1,1.24,20.352A2.5,2.5,0,0,1,1097.608,589.065Z" transform="translate(-941.563 -473.175)" fill="#fff"/><path d="M22.541-2.5A25.034,25.034,0,0,1,40.248,40.248,25.041,25.041,0,1,1,12.793-.531,24.887,24.887,0,0,1,22.541-2.5Zm0,45.083A20.041,20.041,0,1,0,2.5,22.541,20.064,20.064,0,0,0,22.541,42.583Z" transform="translate(88.875 0)" fill="#fff"/><path d="M974.412,512.968h85.156a2.5,2.5,0,0,1,2.5,2.5v58.516a2.5,2.5,0,0,1-2.5,2.5H974.412a2.5,2.5,0,0,1-2.5-2.5V515.468A2.5,2.5,0,0,1,974.412,512.968Zm82.656,5H976.912v53.516h80.156Z" transform="translate(-974.412 -478.582)" fill="#fff"/><path d="M0,13.657a2.5,2.5,0,0,1-2.5-2.5V0A2.5,2.5,0,0,1,0-2.5,2.5,2.5,0,0,1,2.5,0V11.157A2.5,2.5,0,0,1,0,13.657Z" transform="translate(38.024 95.402)" fill="#fff"/><path d="M0,13.657a2.5,2.5,0,0,1-2.5-2.5V0A2.5,2.5,0,0,1,0-2.5,2.5,2.5,0,0,1,2.5,0V11.157A2.5,2.5,0,0,1,0,13.657Z" transform="translate(49.864 95.402)" fill="#fff"/><path d="M110.43,2.5H0A2.5,2.5,0,0,1-2.5,0,2.5,2.5,0,0,1,0-2.5H110.43a2.5,2.5,0,0,1,2.5,2.5A2.5,2.5,0,0,1,110.43,2.5Z" transform="translate(17.532 106.407)" fill="#fff"/><path d="M0,32.1a2.5,2.5,0,0,1-2.5-2.5V0A2.5,2.5,0,0,1,0-2.5,2.5,2.5,0,0,1,2.5,0V29.6A2.5,2.5,0,0,1,0,32.1Z" transform="translate(133.958 84.701)" fill="#fff"/><path d="M988.492,547.17a2.5,2.5,0,0,1-1.823-4.21l10.246-10.929a2.5,2.5,0,0,1,3.705.064l7.484,8.553,11.825-16.547a2.5,2.5,0,0,1,2.034-1.046h.028a2.5,2.5,0,0,1,2.038,1.092l10.7,15.7a2.5,2.5,0,0,1-4.132,2.816l-8.684-12.741-11.579,16.2a2.5,2.5,0,0,1-3.915.193l-7.746-8.852-8.358,8.915A2.493,2.493,0,0,1,988.492,547.17Z" transform="translate(-966.862 -473.175)" fill="#fff"/></g></g></svg>