<svg xmlns="http://www.w3.org/2000/svg" xmlns:xlink="http://www.w3.org/1999/xlink" width="351" height="633" viewBox="0 0 351 633"><defs><clipPath id="b"><rect width="351" height="633"/></clipPath></defs><g id="a" clip-path="url(#b)"><rect width="351" height="633" fill="#fff"/><g transform="translate(-1427 -2697)"><rect width="353" height="632" transform="translate(1427 2698)" fill="#939"/><g transform="translate(1441.033 3026.416)"><text transform="translate(-0.033 -0.416)" fill="#fff" font-size="20" font-family="Montserrat-SemiBold, Montserrat" font-weight="600" letter-spacing="-0.02em"><tspan x="0" y="19">JOUR 3 | </tspan><tspan y="19" font-size="15">À LA PLACE DES SCIENCES</tspan><tspan font-size="15"><tspan x="0" y="44">HUMAINES ET SOCIALES DANS LA SOCIÉTÉ</tspan></tspan></text><text transform="translate(-0.033 58.584)" fill="#fff" font-size="12" font-family="Montserrat-Medium, Montserrat" font-weight="500" letter-spacing="-0.015em"><tspan x="0" y="12">20.SEPTEMBRE 2022</tspan><tspan font-size="15" font-family="Montserrat-Regular, Montserrat" font-weight="400" letter-spacing="-0.03em"><tspan x="0" y="37">le contexte tunisien est particulièrement </tspan><tspan x="0" y="62" letter-spacing="-0.015em">propice pour réfléchir aux relations entre </tspan><tspan x="0" y="87" letter-spacing="-0.015em">universités et champ politique, dans le </tspan><tspan x="0" y="112" letter-spacing="-0.015em">cadre de l’ouverture permise par les </tspan><tspan x="0" y="137" letter-spacing="-0.015em">situations révolutionnaires de 2011. </tspan></tspan><tspan font-size="15"><tspan x="0" y="162">LIRE PLUS</tspan></tspan></text></g><g transform="translate(1515.57 2760.212)"><g transform="translate(19.925 49.81)"><path d="M9.775-2.5A12.275,12.275,0,0,1,22.051,9.775,12.275,12.275,0,0,1,9.775,22.051,12.275,12.275,0,0,1-2.5,9.775,12.275,12.275,0,0,1,9.775-2.5Zm0,19.551A7.275,7.275,0,1,0,2.5,9.775,7.284,7.284,0,0,0,9.775,17.051Z" transform="translate(12.547 0.07)" fill="#fff"/><path d="M1387.834,570.207a2.5,2.5,0,0,1-2.5-2.5,19.495,19.495,0,1,0-38.989,0,2.5,2.5,0,0,1-5,0,24.495,24.495,0,1,1,48.989,0A2.5,2.5,0,0,1,1387.834,570.207Z" transform="translate(-1343.845 -521.672)" fill="#fff"/><path d="M9.775-2.5A12.275,12.275,0,0,1,22.051,9.775,12.275,12.275,0,0,1,9.775,22.051,12.275,12.275,0,0,1-2.5,9.775,12.275,12.275,0,0,1,9.775-2.5Zm0,19.551A7.275,7.275,0,1,0,2.5,9.775,7.284,7.284,0,0,0,9.775,17.051Z" transform="translate(100.43)" fill="#fff"/><path d="M1458.791,570.15a2.5,2.5,0,0,1-2.5-2.5,19.495,19.495,0,0,0-38.989,0,2.5,2.5,0,0,1-5,0,24.495,24.495,0,1,1,48.989,0A2.5,2.5,0,0,1,1458.791,570.15Z" transform="translate(-1326.919 -521.686)" fill="#fff"/><path d="M9.775-2.5A12.275,12.275,0,0,1,22.051,9.775,12.275,12.275,0,0,1,9.775,22.051,12.275,12.275,0,0,1-2.5,9.775,12.275,12.275,0,0,1,9.775-2.5Zm0,19.551A7.275,7.275,0,1,0,2.5,9.775,7.284,7.284,0,0,0,9.775,17.051Z" transform="translate(55.959 25.183)" fill="#fff"/><path d="M1422.886,590.483a2.5,2.5,0,0,1-2.5-2.5,19.5,19.5,0,0,0-38.991,0,2.5,2.5,0,0,1-5,0,24.5,24.5,0,1,1,48.991,0A2.5,2.5,0,0,1,1422.886,590.483Z" transform="translate(-1335.484 -516.836)" fill="#fff"/></g><path d="M1412.32,657.585a87.957,87.957,0,0,1-17.6-1.774,86.859,86.859,0,0,1-31.228-13.14,87.566,87.566,0,0,1-31.634-38.416,86.893,86.893,0,0,1-5.089-16.395,88.148,88.148,0,0,1,0-35.192,86.862,86.862,0,0,1,13.14-31.229A87.569,87.569,0,0,1,1378.33,489.8a86.9,86.9,0,0,1,16.395-5.089,88.147,88.147,0,0,1,35.192,0,86.856,86.856,0,0,1,31.228,13.141,87.57,87.57,0,0,1,31.634,38.417,86.892,86.892,0,0,1,5.089,16.395,87.949,87.949,0,0,1,1.774,17.6,2.5,2.5,0,0,1-5,0,81.9,81.9,0,1,0-3.992,25.4,2.5,2.5,0,1,1,4.756,1.542,87.228,87.228,0,0,1-83.085,60.377Z" transform="translate(-1327.5 -485.441)" fill="#fff"/><path transform="translate(-1296.004 -471.548)" fill="#fff"/><path d="M1468.223,565.235l-9.14-12.841a2.5,2.5,0,0,1,4.073-2.9l4.147,5.827,2.518-5.438a2.5,2.5,0,0,1,4.537,2.1Z" transform="translate(-1298.237 -471.098)" fill="#fff"/></g></g></g></svg>