<svg xmlns="http://www.w3.org/2000/svg" width="355" height="632" viewBox="0 0 355 632"><defs><style>.a{fill:#c36;}.b,.d,.g{fill:#fff;}.b{font-size:20px;font-family:Montserrat-SemiBold, Montserrat;font-weight:600;}.c,.e{font-size:15px;}.d{font-size:12px;font-family:Montserrat-Medium, Montserrat;font-weight:500;}.e{font-family:Montserrat-Regular, Montserrat;font-weight:400;}.f{letter-spacing:-0.02em;}</style></defs><g transform="translate(-1059 -2698)"><rect class="a" width="355" height="632" transform="translate(1059 2698)"/><g transform="translate(1072.784 3026.416)"><text class="b" transform="translate(0.215 -0.416)"><tspan x="0" y="19">JOUR 2 |</tspan><tspan class="c" y="19" xml:space="preserve"> AUX QUESTIONS D’ÉDITION </tspan><tspan class="c" x="0" y="44">ET DE TRADUCTION</tspan></text><text class="d" transform="translate(0.215 58.584)"><tspan x="0" y="12">20.SEPTEMBRE 2022</tspan><tspan class="e"><tspan class="f" x="0" y="37">a circulation plurilingue des savoirs, en</tspan><tspan y="37"> </tspan><tspan class="f" x="0" y="62">apparence</tspan><tspan y="62" xml:space="preserve"> facilitée par les transformations </tspan><tspan x="0" y="87">numériques du marché du livre, rencontre </tspan><tspan x="0" y="112">encore des obstacles dans des contextes </tspan><tspan x="0" y="137">où chaque langue, français, anglais, arabe, </tspan><tspan x="0" y="162">etc. a tendance à se développer en </tspan><tspan x="0" y="187">autonomie.</tspan></tspan><tspan class="c"><tspan x="0" y="212">LIRE PLUS</tspan></tspan></text></g><g transform="translate(1158.857 2769.085)"><g transform="translate(0 86.355)"><path class="g" d="M13.791-2.5A16.286,16.286,0,0,1,25.31,25.31,16.291,16.291,0,1,1,7.449-1.219,16.191,16.191,0,0,1,13.791-2.5Zm0,27.581A11.291,11.291,0,1,0,2.5,13.791,11.3,11.3,0,0,0,13.791,25.081Z" transform="translate(18.53)"/><path class="g" d="M13.791-2.5A16.286,16.286,0,0,1,25.31,25.31,16.291,16.291,0,1,1,7.449-1.219,16.191,16.191,0,0,1,13.791-2.5Zm0,27.581A11.291,11.291,0,1,0,2.5,13.791,11.3,11.3,0,0,0,13.791,25.081Z" transform="translate(65.475)"/><path class="g" d="M13.791-2.5A16.286,16.286,0,0,1,25.31,25.31,16.291,16.291,0,1,1,7.449-1.219,16.191,16.191,0,0,1,13.791-2.5Zm0,27.581A11.291,11.291,0,1,0,2.5,13.791,11.3,11.3,0,0,0,13.791,25.081Z" transform="translate(112.544)"/><path class="g" d="M136.779,203.417h-5a28.528,28.528,0,1,0-57.057,0h-5a33.528,33.528,0,1,1,67.057,0Z" transform="translate(-24.446 -138.572)"/><path class="g" d="M46.544,203.417h-5A33.534,33.534,0,0,1,92.88,175l-2.66,4.234a28.534,28.534,0,0,0-43.676,24.18Z" transform="translate(-44.044 -138.572)"/><path class="g" d="M158.076,203.417h-5a28.534,28.534,0,0,0-43.676-24.18L106.74,175a33.518,33.518,0,0,1,51.336,28.414Z" transform="translate(0.486 -138.572)"/></g><path class="g" d="M-2.5-2.5H124.1V76.87H-2.5Zm121.6,5H2.5V71.87H119.1Z" transform="translate(19.69 0)"/><g transform="translate(52.201 11.506)"><path class="g" d="M74.832,118.447v-5.083H92.755V108.3H97.97v5.054h17.879v5.034c-2.111,0-4.159.031-6.207-.015a1.312,1.312,0,0,0-1.565,1.055,44.909,44.909,0,0,1-9.127,15.746c1.89,1.984,3.694,3.925,5.561,5.8a1.477,1.477,0,0,1,.426,1.909c-.575,1.289-1,2.643-1.487,3.945l-7.779-7.806L82.7,152.009l-3.544-3.591L91.968,135.39a45.5,45.5,0,0,1-7.642-11.784c1.616,0,3.033-.058,4.442.039.37.025.8.463,1.046.821,1.768,2.591,3.5,5.209,5.349,7.986a40.7,40.7,0,0,0,8.386-14Z" transform="translate(-74.832 -108.298)"/><path class="g" d="M119.792,151.232c-1.629,0-3,.056-4.368-.037a1.478,1.478,0,0,1-1.005-.8c-.785-1.9-1.506-3.818-2.189-5.753A1.383,1.383,0,0,0,110.7,143.5c-3.388.064-6.779.053-10.166.005a1.225,1.225,0,0,0-1.387.955c-.676,1.936-1.453,3.839-2.109,5.78a1.278,1.278,0,0,1-1.494,1.014c-1.27-.066-2.545-.017-4.01-.017,1.246-3.3,2.435-6.448,3.613-9.595,2.509-6.7,5.031-13.4,7.5-20.12a1.443,1.443,0,0,1,1.687-1.136c1.272.083,2.553.02,3.9.02Zm-18.306-12.889h8.349l-4.176-11.163Z" transform="translate(-63.219 -99.898)"/></g></g></g></svg>