<svg xmlns="http://www.w3.org/2000/svg" width="674" height="352" viewBox="0 0 674 352"><defs><style>.a,.h{fill:#0097aa;}.b{fill:#707070;}.c{opacity:0.55;}.d,.f{fill:#fff;}.e{fill:none;}.f{font-size:20px;font-family:Montserrat-Medium, Montserrat;font-weight:500;}.g,.h{font-family:Montserrat-Bold, Montserrat;font-weight:700;}.g{text-decoration:underline;}.h{font-size:36px;}</style></defs><g transform="translate(-1106 -1151)"><rect class="a" width="674" height="352" transform="translate(1106 1151)"/><path class="b" d="M1,1V351H673V1H1M0,0H674V352H0Z" transform="translate(1106 1151)"/><g transform="translate(0 -17.446)"><g class="c" transform="translate(1876.922 1425.844)"><path class="d" d="M-508.577-20.959c.524.43,1.093.822,1.575,1.3Q-490.061-2.738-473.138,14.2c2.3,2.3,2.293,3.377-.024,5.7q-7.431,7.442-14.87,14.876c-1.937,1.933-3.176,1.948-5.077.047Q-514.4,13.538-535.67-7.751c-1.981-1.982-1.969-3.188.036-5.2q7.545-7.57,15.106-15.124c1.933-1.931,3.157-1.939,5.073-.034.928.923,1.818,1.884,3.357,3.486a12.508,12.508,0,0,1,1.425-2.318c3.639-3.691,7.216-7.462,11.81-10.04A25.545,25.545,0,0,1-486.3-40.4q29.413-.083,58.826-.013a13.6,13.6,0,0,1,13.5,13.543A13.614,13.614,0,0,1-427.426-13.1c-9.974.106-19.95.042-29.926.028-2.041,0-3.171-1.056-3.139-2.791s1.15-2.668,3.247-2.67c9.8-.01,19.609.032,29.413-.021A8.158,8.158,0,0,0-419.8-29.18a8.027,8.027,0,0,0-7.642-5.769c-3.989-.061-7.98-.024-11.97-.024-14.821,0-29.643.113-44.461-.05a24.083,24.083,0,0,0-18.159,7.267C-504.162-25.623-506.215-23.418-508.577-20.959Zm17.9,50.13,12.061-12.056-39.366-39.487-12.083,12.078Z" transform="translate(0 -106.719)"/><path class="d" d="M-367.643-13.5q-11.711,0-23.422,0c-2.642,0-4.014-.894-4.076-2.632-.065-1.809,1.4-2.839,4.056-2.839,15.045,0,30.091-.091,45.135.036,7.883.066,14.061-3,18.539-9.362,8.1-11.5,16.089-23.083,24.09-34.654a10.258,10.258,0,0,0,2.052-6.9,6.332,6.332,0,0,0-4.647-5.566,7.016,7.016,0,0,0-7.728,1.674c-5.1,5.052-10.164,10.146-15.245,15.22a9.416,9.416,0,0,1-1.253,1.157,2.511,2.511,0,0,1-3.54-.356,2.528,2.528,0,0,1-.26-3.426,1.659,1.659,0,0,1,.214-.265c5.739-5.7,11.324-11.574,17.273-17.049,4.31-3.966,10.767-3.935,15.507-.563a12.211,12.211,0,0,1,4.378,14.71,23.309,23.309,0,0,1-2.693,5.111q-11.327,16.473-22.776,32.862c-5.992,8.613-14.056,13.163-24.746,12.881C-353.733-13.646-360.69-13.5-367.643-13.5Z" transform="translate(-77.231 -85.303)"/><path class="d" d="M26.51-2.5A29,29,0,0,1,47.024,47.024,29.01,29.01,0,1,1,15.217-.219,28.831,28.831,0,0,1,26.51-2.5Zm0,53.021A24.01,24.01,0,1,0,2.5,26.51,24.038,24.038,0,0,0,26.51,50.521Z" transform="translate(-472.537 -235.363)"/><circle class="e" cx="26.51" cy="26.51" r="26.51" transform="translate(-472.537 -235.764)"/></g><text class="f" transform="translate(1244 1469)"><tspan x="0" y="0">Vous pouvez contacter </tspan><tspan class="g" y="0">IRMC</tspan><tspan y="0" xml:space="preserve"> pour plus </tspan><tspan x="0" y="24">de détails</tspan></text><rect class="d" width="398" height="51" transform="translate(1244 1386)"/><text class="h" transform="translate(1304 1425)"><tspan x="0" y="0">FAIRE UN DON</tspan></text></g></g></svg>