<svg xmlns="http://www.w3.org/2000/svg" width="355" height="632" viewBox="0 0 355 632"><g transform="translate(-1059 -2698)"><rect width="355" height="632" transform="translate(1059 2698)" fill="#17427c"/><g transform="translate(1072.785 3026.416)"><text transform="translate(0.215 -0.416)" fill="#fff" font-size="20" font-family="Montserrat-SemiBold, Montserrat" font-weight="600"><tspan x="0" y="19">JOUR 4 |</tspan><tspan y="19" font-size="15">UN FESTIVAL DE FILMS À LA </tspan><tspan x="0" y="44" font-size="15">CITÉ DE LA CULTURE</tspan></text><text transform="translate(0.215 58.584)" fill="#fff" font-size="12" font-family="Montserrat-Medium, Montserrat" font-weight="500"><tspan x="0" y="12">INSANIYYAT &amp; LA CINÉMATHÈQUE DE TUNIS </tspan><tspan x="0" y="37">ORGANISENT UN FESTIVAL DE FILMS À LA CITÉ DE </tspan><tspan x="0" y="62">LA CULTURE, DU 20 AU 25 SEPTEMBRE 2022. </tspan><tspan x="0" y="87">DEUX THÈMES SONT RETENUS POUR LA </tspan><tspan x="0" y="112" xml:space="preserve">PROGRAMMATION  : CRISES ET FILMS ARABES ET </tspan><tspan x="0" y="137">AFRICAINS.</tspan><tspan x="0" y="162">LES PROJECTIONS AURONT LIEU À 14H30, 17H30, </tspan><tspan x="0" y="187">20H30.</tspan><tspan font-size="15"><tspan x="0" y="212">LIRE PLUS</tspan></tspan></text></g><path d="M4.5,0,9,5H0Z" transform="translate(1164 3295) rotate(180)" fill="#fff"/><path d="M4.5,0,9,5H0Z" transform="translate(1164 3295) rotate(180)" fill="#fff"/><g transform="translate(947.525 2478.678)"><circle cx="14.659" cy="14.659" r="14.659" transform="translate(226.169 375.182)" fill="#17427c"/><path d="M14.659-2.5A17.154,17.154,0,0,1,26.791,26.791,17.159,17.159,0,1,1,7.979-1.151,17.053,17.053,0,0,1,14.659-2.5Zm0,29.317A12.159,12.159,0,1,0,2.5,14.659,12.172,12.172,0,0,0,14.659,26.817Z" transform="translate(226.169 375.182)" fill="#fff"/><circle cx="14.659" cy="14.659" r="14.659" transform="translate(276.069 375.182)" fill="#17427c"/><path d="M14.659-2.5A17.154,17.154,0,0,1,26.791,26.791,17.159,17.159,0,1,1,7.979-1.151,17.053,17.053,0,0,1,14.659-2.5Zm0,29.317A12.159,12.159,0,1,0,2.5,14.659,12.172,12.172,0,0,0,14.659,26.817Z" transform="translate(276.069 375.182)" fill="#fff"/><circle cx="14.659" cy="14.659" r="14.659" transform="translate(326.1 375.182)" fill="#17427c"/><path d="M14.659-2.5A17.154,17.154,0,0,1,26.791,26.791,17.159,17.159,0,1,1,7.979-1.151,17.053,17.053,0,0,1,14.659-2.5Zm0,29.317A12.159,12.159,0,1,0,2.5,14.659,12.172,12.172,0,0,0,14.659,26.817Z" transform="translate(326.1 375.182)" fill="#fff"/><path d="M239.164,404.634a32.981,32.981,0,0,1,65.962,0" transform="translate(18.092 39.473)" fill="#17427c"/><path d="M305.126,407.134a2.5,2.5,0,0,1-2.5-2.5,30.481,30.481,0,0,0-60.962,0,2.5,2.5,0,1,1-5,0,35.481,35.481,0,1,1,70.962,0A2.5,2.5,0,0,1,305.126,407.134Z" transform="translate(18.092 39.473)" fill="#fff"/><path d="M206.474,404.634a32.989,32.989,0,0,1,50.5-27.953" transform="translate(0 39.473)" fill="#17427c"/><path d="M206.474,407.134a2.5,2.5,0,0,1-2.5-2.5,35.489,35.489,0,0,1,54.325-30.07,2.5,2.5,0,0,1-2.658,4.235,30.489,30.489,0,0,0-46.667,25.835A2.5,2.5,0,0,1,206.474,407.134Z" transform="translate(0 39.473)" fill="#fff"/><path d="M331.248,404.634a32.989,32.989,0,0,0-50.5-27.953" transform="translate(41.109 39.473)" fill="#17427c"/><path d="M331.248,407.134a2.5,2.5,0,0,1-2.5-2.5A30.489,30.489,0,0,0,282.081,378.8a2.5,2.5,0,1,1-2.659-4.235,35.471,35.471,0,0,1,54.325,30.07A2.5,2.5,0,0,1,331.248,407.134Z" transform="translate(41.109 39.473)" fill="#fff"/><path d="M224.884,365.256V309.223a8.919,8.919,0,0,1,8.893-8.893h92.152a8.919,8.919,0,0,1,8.893,8.893v56.033" transform="translate(10.189 0)" fill="#17427c"/><path d="M334.823,367.756a2.5,2.5,0,0,1-2.5-2.5V309.223a6.4,6.4,0,0,0-6.393-6.393H233.777a6.4,6.4,0,0,0-6.393,6.393v56.033a2.5,2.5,0,0,1-5,0V309.223a11.419,11.419,0,0,1,11.393-11.393h92.152a11.419,11.419,0,0,1,11.393,11.393v56.033A2.5,2.5,0,0,1,334.823,367.756Z" transform="translate(10.189 0)" fill="#fff"/><path d="M254.46,312.591l20.668,17.9-19.75,17.1Z" transform="translate(24.54 3.369)" fill="#fff"/></g></g></svg>