<svg xmlns="http://www.w3.org/2000/svg" xmlns:xlink="http://www.w3.org/1999/xlink" width="536" height="414" viewBox="0 0 536 414"><defs><clipPath id="a"><rect width="536" height="414" transform="translate(1244 2308)" fill="#fff" stroke="#707070" stroke-width="1"/></clipPath><clipPath id="b"><rect width="1920" height="551" transform="translate(0 2165)" fill="#fff"/></clipPath></defs><g transform="translate(-1244 -2308)" clip-path="url(#a)"><text transform="translate(729 2586)" fill="#fff" font-size="25" font-family="Montserrat-Medium, Montserrat" font-weight="500" letter-spacing="0.03em"><tspan x="0" y="24">Dans Un Établissement Du Sud</tspan></text><g transform="translate(554)" clip-path="url(#b)"><path d="M128.806,2C58.923,2,2,60.962,2,133.347S58.923,264.694,128.806,264.694s126.806-58.962,126.806-131.347S198.688,2,128.806,2Zm0,26.269c56.176,0,101.444,46.889,101.444,105.078S184.982,238.425,128.806,238.425,27.361,191.535,27.361,133.347,72.629,28.269,128.806,28.269Zm-12.681,39.4V93.943h25.361V67.673Zm0,52.539V199.02h25.361V120.212Z" transform="translate(1718 2306)" fill="#224474" opacity="0.11"/></g><g transform="translate(2 1)"><rect width="538" height="409" transform="translate(1242 2307)" fill="#f93"/></g><text transform="translate(1265 2327)" fill="#fff" font-size="28" font-family="Montserrat-Bold, Montserrat" font-weight="700"><tspan x="0" y="27">Etudiant.e | </tspan><tspan x="0" y="67">Membre d’un comité d’Insaniyyat</tspan></text><text transform="translate(1291 2478)" fill="#fff" font-size="70" font-family="Montserrat-SemiBold, Montserrat" font-weight="600"><tspan x="0" y="68">0</tspan><tspan y="68" xml:space="preserve" font-size="25"> TND</tspan></text><text transform="translate(1291 2586)" fill="#fff" font-size="25" font-family="Montserrat-Medium, Montserrat" font-weight="500" letter-spacing="0.03em"><tspan x="0" y="24">Dans Un Établissement Du Sud</tspan></text><text transform="translate(1301 2574)" fill="#fff" font-size="17" font-family="Montserrat-Medium, Montserrat" font-weight="500"><tspan x="0" y="0">ou équivalent</tspan></text><rect width="2" height="178" transform="translate(1270 2437)" fill="#fff"/></g></svg>