<svg xmlns="http://www.w3.org/2000/svg" xmlns:xlink="http://www.w3.org/1999/xlink" width="536" height="426" viewBox="0 0 536 426"><defs><style>.a{fill:url(#a);}.b{fill:#17427c;opacity:0.85;}.c,.d,.e,.f{fill:#fff;}.c{font-size:55px;font-family:Montserrat-Bold, Montserrat;font-weight:700;letter-spacing:0.02em;}.e{font-size:20px;font-family:Montserrat-Regular, Montserrat;}.f{font-size:15px;font-family:Montserrat-Medium, Montserrat;font-weight:500;}</style><pattern id="a" preserveAspectRatio="xMidYMid slice" width="100%" height="100%" viewBox="0 0 4000 6000"><image width="4000" height="6000" xlink:href="../../../../../../Downloads/pexels-anna-shvets-3943947.jpg"/></pattern></defs><g transform="translate(-692 -1095)"><rect class="a" width="536" height="426" transform="translate(692 1095)"/><rect class="b" width="536" height="426" transform="translate(692 1095)"/><text class="c" transform="translate(812 1181)"><tspan x="0" y="0">POINT </tspan><tspan x="0" y="70">ACCÈS</tspan></text><rect class="d" width="87" height="9" transform="translate(727 1448)"/><text class="e" transform="translate(991 1460)"><tspan x="0" y="0">Plus d&apos;informations </tspan></text><path class="d" d="M20915.033,3855.5h-196.117v-1h196.117Z" transform="translate(-19727.916 -2390)"/><g transform="translate(-34 -74)"><path class="d" d="M26,5A21,21,0,0,0,11.151,40.849a21,21,0,0,0,29.7-29.7A20.863,20.863,0,0,0,26,5m0-5A26,26,0,1,1,0,26,26,26,0,0,1,26,0Z" transform="translate(762 1215)"/><path class="d" d="M668.94,389.86l-1.117-1.265c-.393-.445-.79-.891-1.175-1.323-.851-.956-1.732-1.945-2.577-2.933a55.069,55.069,0,0,1-5.05-6.8,25.987,25.987,0,0,1-2.207-4.375,10.657,10.657,0,0,1,.027-7.721,13.259,13.259,0,0,1,3.789-5.613,12.961,12.961,0,0,1,16.574,0,12.952,12.952,0,0,1,4.435,7.625,11.625,11.625,0,0,1-1.169,7.285,41.012,41.012,0,0,1-4.714,7.3c-1.557,2-3.355,4.069-5.5,6.338-.032.034-.063.07-.1.113l-.093.105ZM669,362.329a7.4,7.4,0,0,0-1.594.176,7,7,0,0,0-5.314,4.581,5.275,5.275,0,0,0-.192,3.966,20.6,20.6,0,0,0,1.275,2.69,46.269,46.269,0,0,0,4.6,6.411c.374.455.752.9,1.143,1.362l.364-.443c1.035-1.259,2.105-2.56,3.118-3.859a27.932,27.932,0,0,0,3.041-4.8,6.223,6.223,0,0,0,.735-3.973A7.308,7.308,0,0,0,669,362.329Z" transform="translate(119.256 868.349)"/></g><text class="f" transform="translate(814 1274)"><tspan x="0" y="15">eat alteration pianoforte sympathize </tspan><tspan x="0" y="45">was. he families believed if no </tspan></text></g></svg>