<svg xmlns="http://www.w3.org/2000/svg" xmlns:xlink="http://www.w3.org/1999/xlink" width="536" height="426" viewBox="0 0 536 426"><defs><style>.a,.d{fill:#17427c;}.b{clip-path:url(#a);}.c{fill:url(#b);}.d{opacity:0.85;}.e,.f,.g,.h{fill:#fff;}.e{font-size:55px;font-family:Montserrat-Bold, Montserrat;font-weight:700;letter-spacing:0.02em;}.g{font-size:20px;font-family:Montserrat-Regular, Montserrat;}.h{font-size:15px;font-family:Montserrat-Medium, Montserrat;font-weight:500;}</style><clipPath id="a"><rect class="a" width="536" height="426" transform="translate(1310 644)"/></clipPath><pattern id="b" width="1" height="1" viewBox="-278.23 -185.321 1676.461 1116.643"><image preserveAspectRatio="none" width="1120" height="746" xlink:href="../../../../../../Downloads/pexels-mikhail-nilov-6968188.jpg"/></pattern></defs><g transform="translate(-1244 -644)"><g class="b" transform="translate(-66)"><rect class="c" width="1120" height="746" transform="translate(1028 514)"/></g><rect class="d" width="536" height="426" transform="translate(1244 644)"/><text class="e" transform="translate(1361 735)"><tspan x="0" y="0">DATES CLÉS</tspan><tspan x="0" y="70">ET LIEUX</tspan></text><rect class="f" width="87" height="9" transform="translate(1279 997)"/><text class="g" transform="translate(1543 1009)"><tspan x="0" y="0">Plus d&apos;informations </tspan></text><path class="f" d="M20915.033,3855.5h-196.117v-1h196.117Z" transform="translate(-19175.916 -2841)"/><g transform="translate(-137.975 1037.025)"><path class="f" d="M1446.788-336.074Z" transform="translate(0)"/><path class="f" d="M1446.761-309.689a2,2,0,0,1-.765-.152,2,2,0,0,1-1.235-1.848v-18.776a2,2,0,0,1,2-2,2,2,0,0,1,2,2v13.947l6.48-6.48a2,2,0,0,1,2.828,0,2,2,0,0,1,0,2.828l-9.894,9.894A2,2,0,0,1,1446.761-309.689Z"/></g><g transform="translate(558 -2)"><path class="f" d="M26,5A21,21,0,0,0,11.151,40.849a21,21,0,0,0,29.7-29.7A20.863,20.863,0,0,0,26,5m0-5A26,26,0,1,1,0,26,26,26,0,0,1,26,0Z" transform="translate(726 697)"/></g><text class="h" transform="translate(1366 828)"><tspan x="0" y="15">eat alteration pianoforte sympathize </tspan><tspan x="0" y="45">was. he families believed if no </tspan></text></g></svg>