<svg xmlns="http://www.w3.org/2000/svg" xmlns:xlink="http://www.w3.org/1999/xlink" width="536" height="426" viewBox="0 0 536 426"><defs><style>.a,.d{fill:#17427c;}.b{fill:none;stroke:#fff;stroke-width:5px;}.c{clip-path:url(#a);}.d{opacity:0.85;}.e,.f,.g,.i{fill:#fff;}.e{font-size:55px;font-family:Montserrat-Bold, Montserrat;font-weight:700;letter-spacing:0.02em;}.g{font-size:20px;font-family:Montserrat-Regular, Montserrat;}.h{clip-path:url(#b);}.i{font-size:15px;font-family:Montserrat-Medium, Montserrat;font-weight:500;}</style><clipPath id="a"><rect class="a" width="536" height="426" transform="translate(1228 1204)"/></clipPath><clipPath id="b"><circle class="b" cx="26" cy="26" r="26" transform="translate(1284 1144)"/></clipPath></defs><g transform="translate(-1244 -1095)"><g class="c" transform="translate(16 -109)"><image width="717" height="502" transform="translate(1106 1166)" xlink:href="../../../../../../Downloads/pexels-pixabay-271639.jpg"/></g><rect class="d" width="536" height="426" transform="translate(1244 1095)"/><text class="e" transform="translate(1363 1182)"><tspan x="0" y="0">HEBERGE-</tspan><tspan x="0" y="70">MENT</tspan></text><rect class="f" width="87" height="9" transform="translate(1279 1448)"/><text class="g" transform="translate(1543 1460)"><tspan x="0" y="0">Plus d&apos;informations </tspan></text><path class="f" d="M20915.033,3855.5h-196.117v-1h196.117Z" transform="translate(-19175.916 -2390)"/><path class="f" d="M26,5A21,21,0,0,0,11.151,40.849a21,21,0,0,0,29.7-29.7A20.863,20.863,0,0,0,26,5m0-5A26,26,0,1,1,0,26,26,26,0,0,1,26,0Z" transform="translate(1284 1144)"/><g class="h" transform="translate(0 -3)"><path class="f" d="M21.107-1.976a3.765,3.765,0,0,1,2.732,1.3l.021.023c.85.911,1.718,1.841,2.58,2.773a4.01,4.01,0,0,1,2.208-.516H29c.4,0,.762,0,1.077,0l.494,0a3.872,3.872,0,0,1,3.05.925A3.088,3.088,0,0,1,34.4,4.579a17.1,17.1,0,0,1-.051,1.753c-.013.226-.028.473-.042.741a5.1,5.1,0,0,0,1.949,4.714l.013.011c1.676,1.43,3.216,3.02,4.706,4.558.589.608,1.2,1.237,1.8,1.835a5.251,5.251,0,0,1,1.1,1.447,3.447,3.447,0,0,1-2,4.664,5.382,5.382,0,0,1-1.782.23c-.078,0-.169,0-.266.006-.12,0-.255.008-.4.008s-.27,0-.395-.013c.05,3.431.044,6.9.038,10.25q0,1.7,0,3.412a4.543,4.543,0,0,1-.947,3.425,4.508,4.508,0,0,1-3.415.969H28.717a4.317,4.317,0,0,1-3.3-1.036,4.5,4.5,0,0,1-.992-3.326q0-1.334,0-2.662c-.006-2.617-.012-5.323.038-8.01h-.01c-1.093.034-2.2.051-3.295.051s-2.208-.017-3.3-.051h-.024l-.078,0q0,.028,0,.058c.05,2.469.044,4.981.038,7.411q0,1.223,0,2.441c0,1.8,0,3.1-.967,4.1-.992,1.024-2.346,1.024-4.06,1.024-.639,0-1.281,0-1.9-.007s-1.244-.007-1.864-.007c-.689,0-1.293,0-1.846.014l-.146,0a3.815,3.815,0,0,1-2.849-1.059,3.957,3.957,0,0,1-1.008-2.967c.014-1.982.01-4,.006-5.953-.005-2.624-.011-5.337.027-8.014v-.013q0-.03,0-.058c-.259.019-.525.028-.795.029s-.553-.01-.819-.031l-.028,0a3.64,3.64,0,0,1-3.3-2.2l-.011-.028A3.393,3.393,0,0,1-.744,18.368c3.187-3.187,6.435-6.418,9.575-9.542s6.4-6.367,9.592-9.558A3.768,3.768,0,0,1,21.107-1.976Zm4.9,9.552-.934-1.025c-1.3-1.43-2.661-2.887-3.981-4.3C17.951,5.4,14.75,8.58,11.653,11.661c-2.926,2.911-5.944,5.913-8.919,8.886l.131-.008a6.134,6.134,0,0,1,.616-.033,3.566,3.566,0,0,1,2.657,1.016A4.139,4.139,0,0,1,7.171,24.66C7.133,27.3,7.139,30,7.144,32.6c0,1.96.008,3.987-.006,5.985.559-.009,1.164-.014,1.849-.014.632,0,1.27,0,1.888.007s1.252.007,1.879.007c.287,0,.683,0,1.013-.011.013-.358.013-.8.013-1.115q0-1.223,0-2.452c.006-2.407.012-4.9-.037-7.318a4.056,4.056,0,0,1,1.023-3.082,3.9,3.9,0,0,1,2.9-1.059c.1,0,.2,0,.308.006,1.052.032,2.118.049,3.17.049s2.126-.016,3.181-.049h.016l.171,0a3.875,3.875,0,0,1,2.927,1.061,3.958,3.958,0,0,1,1.009,3.01c-.049,2.646-.043,5.332-.037,7.93q0,1.334,0,2.671c0,.14,0,.258.006.357.082,0,.178,0,.289,0H34.7c.136,0,.255,0,.358,0,0-.111,0-.241,0-.392q0-1.712,0-3.419c.006-3.335.012-6.783-.037-10.18a4.034,4.034,0,0,1,1.018-3.063,3.588,3.588,0,0,1,2.676-1.018c.174,0,.357.008.545.025l.022,0a1.765,1.765,0,0,0,.179,0c-.463-.47-.923-.945-1.371-1.408-1.422-1.469-2.893-2.987-4.422-4.292a9.072,9.072,0,0,1-3.366-7.979V6.862c.015-.277.029-.531.043-.765.009-.162.019-.33.028-.492l-.279,0c-.3,0-.642,0-1.022,0l.046,1.054-1.655.331c-.038.013-.116.044-.174.067Z" transform="translate(1288.917 1154.644)"/></g><text class="i" transform="translate(1366 1274)"><tspan x="0" y="15">eat alteration pianoforte sympathize </tspan><tspan x="0" y="45">was. he families believed if no </tspan></text></g></svg>