<svg xmlns="http://www.w3.org/2000/svg" xmlns:xlink="http://www.w3.org/1999/xlink" width="536" height="430" viewBox="0 0 536 430"><defs><style>.a,.e,.f,.g,.h{fill:#fff;}.a{stroke:#707070;}.b{clip-path:url(#a);}.c{fill:url(#b);}.d{fill:#17427c;opacity:0.76;}.e{font-size:55px;font-family:Montserrat-Bold, Montserrat;font-weight:700;letter-spacing:0.02em;opacity:0.85;}.g{font-size:20px;font-family:Montserrat-Regular, Montserrat;}.h{font-size:15px;font-family:Montserrat-Medium, Montserrat;font-weight:500;}</style><clipPath id="a"><rect class="a" width="536" height="430" transform="translate(708 541)"/></clipPath><pattern id="b" preserveAspectRatio="none" width="100%" height="100%" viewBox="0 0 5620 3747"><image width="5620" height="3747" xlink:href="../../../../../../Downloads/pexels-anna-shvets-3786126.jpg"/></pattern></defs><g transform="translate(-692 -640)"><g class="b" transform="translate(-16 99)"><rect class="c" width="649" height="433" transform="translate(638 544)"/></g><rect class="d" width="536" height="426" transform="translate(692 644)"/><text class="e" transform="translate(811 735)"><tspan x="0" y="0">MESURES </tspan><tspan x="0" y="70">SANITAIRES </tspan><tspan x="0" y="140"></tspan></text><rect class="f" width="87" height="9" transform="translate(726 997)"/><text class="g" transform="translate(991 1009)"><tspan x="0" y="0">Plus d&apos;informations </tspan></text><path class="f" d="M20915.033,3855.5h-196.117v-1h196.117Z" transform="translate(-19727.916 -2841)"/><g transform="translate(0 -2)"><g transform="translate(741.057 709.868)"><path class="f" d="M21576.686,3290.281h-22.951a2,2,0,0,1,0-4h22.951a2,2,0,0,1,0,4Z" transform="translate(-21553.734 -3275.744)"/><path class="f" d="M21581.426,3291.65a2,2,0,0,1-2-2V3263.5a2,2,0,0,1,4,0v26.15A2,2,0,0,1,21581.426,3291.65Z" transform="translate(-21570.559 -3263.5)"/></g><path class="f" d="M26,5A21,21,0,0,0,11.151,40.849a21,21,0,0,0,29.7-29.7A20.863,20.863,0,0,0,26,5m0-5A26,26,0,1,1,0,26,26,26,0,0,1,26,0Z" transform="translate(726 697)"/></g><text class="h" transform="translate(814 828)"><tspan x="0" y="15">eat alteration pianoforte sympathize </tspan><tspan x="0" y="45">was. he families believed if no </tspan></text></g></svg>