<svg xmlns="http://www.w3.org/2000/svg" xmlns:xlink="http://www.w3.org/1999/xlink" width="536" height="426" viewBox="0 0 536 426"><defs><style>.a,.e{fill:#17427c;}.b{fill:none;stroke:#fff;stroke-width:5px;}.c{clip-path:url(#a);}.d{fill:url(#b);}.e{opacity:0.85;}.f,.g,.h{fill:#fff;}.f{font-size:55px;font-family:Montserrat-Bold, Montserrat;font-weight:700;letter-spacing:0.02em;}.h{font-size:20px;font-family:Montserrat-Regular, Montserrat;}.i{clip-path:url(#c);}</style><clipPath id="a"><rect class="a" width="536" height="426" transform="translate(140 1183)"/></clipPath><pattern id="b" preserveAspectRatio="none" width="100%" height="100%" viewBox="0 0 3803 2535"><image width="3803" height="2535" xlink:href="../../../../../../Downloads/pexels-bedis-elacheche-891125.jpg"/></pattern><clipPath id="c"><circle class="b" cx="26" cy="26" r="26" transform="translate(159 1110)"/></clipPath></defs><g transform="translate(-140 -1095)"><g class="c" transform="translate(0 -88)"><rect class="d" width="847" height="565" transform="translate(-33 1055)"/></g><rect class="e" width="536" height="426" transform="translate(140 1095)"/><text class="f" transform="translate(259 1181)"><tspan x="0" y="0">DÉCOUVRIR </tspan><tspan x="0" y="70">MÉDINA </tspan><tspan x="0" y="140">BARDO</tspan><tspan x="0" y="210">CARTHAGE</tspan></text><rect class="g" width="87" height="9" transform="translate(175 1448)"/><text class="h" transform="translate(442 1460)"><tspan x="0" y="0">Plus d&apos;informations </tspan></text><path class="g" d="M20915.033,3855.5h-196.117v-1h196.117Z" transform="translate(-20276.916 -2390)"/><g transform="translate(2 17)"><g class="i" transform="translate(9 14)"><path class="g" d="M-347.774-33.105h-.554a13.834,13.834,0,0,1-2.168-1.456c-3.773-3.7-7.5-7.454-11.231-11.2-.377-.379-.643-.593-1.227-.224A15.384,15.384,0,0,1-374.23-43.8,15.578,15.578,0,0,1-386.6-56.067c-.126-.72-.232-1.443-.348-2.165V-59.9a3.672,3.672,0,0,0,.157-.608,15.423,15.423,0,0,1,12.735-13.869c.628-.109,1.259-.2,1.888-.3h1.663l1.532.232a15.56,15.56,0,0,1,10.82,23.607.951.951,0,0,0,.181,1.45q5.6,5.55,11.14,11.159a13.8,13.8,0,0,1,1.455,2.166v.554A3.027,3.027,0,0,1-347.774-33.105Zm-33.867-25.951a10.261,10.261,0,0,0,10.318,10.3,10.263,10.263,0,0,0,10.3-10.316,10.272,10.272,0,0,0-10.319-10.3A10.271,10.271,0,0,0-381.641-59.056Z" transform="translate(554.371 1194.105)"/></g><path class="g" d="M26,5A21,21,0,0,0,11.151,40.849a21,21,0,0,0,29.7-29.7A20.863,20.863,0,0,0,26,5m0-5A26,26,0,1,1,0,26,26,26,0,0,1,26,0Z" transform="translate(168 1124)"/></g></g></svg>