<svg xmlns="http://www.w3.org/2000/svg" width="538" height="440" viewBox="0 0 538 440"><defs><style>.a{fill:#939;}.b,.c,.e,.f{fill:#fff;}.b{font-size:30px;}.b,.d{font-family:Montserrat-Medium, Montserrat;font-weight:500;}.c{font-size:70px;font-family:Montserrat-SemiBold, Montserrat;font-weight:600;}.e{font-size:25px;font-family:Montserrat-Bold, Montserrat;font-weight:700;}</style></defs><g transform="translate(-140 -2307)"><rect class="a" width="538" height="409" transform="translate(140 2307)"/><text class="b" transform="translate(312 2342)"><tspan x="0" y="29">Étudiant.E.S </tspan></text><text class="c" transform="translate(295 2436)"><tspan x="0" y="68">100</tspan><tspan class="d" y="68">DT</tspan></text><text class="e" transform="translate(174 2614)"><tspan x="0" y="24">Date Limite </tspan><tspan class="d"><tspan x="0" y="64">20 Janvier 2022</tspan></tspan></text><g transform="translate(-25.585 1476.415)"><g transform="translate(619 1160)"><path class="f" d="M22.5,2a20.506,20.506,0,0,0-7.979,39.39A20.506,20.506,0,0,0,30.479,3.61,20.37,20.37,0,0,0,22.5,2m0-2A22.5,22.5,0,1,1,0,22.5,22.5,22.5,0,0,1,22.5,0Z" transform="translate(-0.415 -0.415)"/><g transform="translate(9.424 15.01)"><path class="f" d="M-3320.1,1144.605h-25.154a1,1,0,0,1-1-1,1,1,0,0,1,1-1h25.154a1,1,0,0,1,1,1A1,1,0,0,1-3320.1,1144.605Z" transform="translate(3345.257 -1136.336)"/><path class="f" d="M9.409,18.9A1,1,0,0,1,8.7,17.2l6.833-6.917L8.708,3.569a1,1,0,0,1,1.4-1.426l8.252,8.114L10.12,18.6A1,1,0,0,1,9.409,18.9Z" transform="translate(8.795 -2.856)"/></g></g></g></g></svg>